<svg width="19" height="22" viewBox="0 0 19 22" fill="none" xmlns="http://www.w3.org/2000/svg">
<path d="M0.695333 8.86186L0.695387 8.8618L8.862 0.695191C8.86202 0.695173 8.86204 0.695155 8.86205 0.695138C8.98707 0.57019 9.15658 0.5 9.33333 0.5C9.51008 0.5 9.6796 0.57019 9.80461 0.695138C9.80463 0.695155 9.80465 0.695173 9.80467 0.695191L17.9713 8.8618L17.9713 8.86186C18.0963 8.98682 18.1666 9.15632 18.1667 9.33308C18.1667 9.33312 18.1667 9.33315 18.1667 9.33319V20.5168C18.1667 20.6936 18.0964 20.8631 17.9714 20.9882C17.8464 21.1132 17.6768 21.1834 17.5 21.1834H12.1667V13.5168V13.0168H11.6667H7H6.5V13.5168V21.1834H1.16667C0.989855 21.1834 0.820286 21.1132 0.695262 20.9882C0.570238 20.8631 0.5 20.6936 0.5 20.5168V9.33319C0.5 9.33315 0.5 9.33312 0.5 9.33308C0.500066 9.15633 0.570326 8.98683 0.695333 8.86186Z" stroke="#656565"/>
</svg>
