<svg width="22" height="24" viewBox="0 0 22 24" fill="none" xmlns="http://www.w3.org/2000/svg">
<path d="M19.1667 2.49996H14.29C13.8 1.14663 12.5167 0.166626 11 0.166626C9.48333 0.166626 8.2 1.14663 7.71 2.49996H2.83333C1.55 2.49996 0.5 3.54996 0.5 4.83329V21.1666C0.5 22.45 1.55 23.5 2.83333 23.5H19.1667C20.45 23.5 21.5 22.45 21.5 21.1666V4.83329C21.5 3.54996 20.45 2.49996 19.1667 2.49996ZM11 2.49996C11.6417 2.49996 12.1667 3.02496 12.1667 3.66663C12.1667 4.30829 11.6417 4.83329 11 4.83329C10.3583 4.83329 9.83333 4.30829 9.83333 3.66663C9.83333 3.02496 10.3583 2.49996 11 2.49996ZM11 7.16663C12.9367 7.16663 14.5 8.72996 14.5 10.6666C14.5 12.6033 12.9367 14.1666 11 14.1666C9.06333 14.1666 7.5 12.6033 7.5 10.6666C7.5 8.72996 9.06333 7.16663 11 7.16663ZM18 21.1666H4V19.5333C4 17.2 8.66667 15.9166 11 15.9166C13.3333 15.9166 18 17.2 18 19.5333V21.1666Z" fill="white"/>
</svg>
