<svg width="11" height="16" viewBox="0 0 11 16" fill="none" xmlns="http://www.w3.org/2000/svg">
<path d="M1.82904 0.829351L2.63604 0.571351C3.39279 0.329851 4.20129 0.720601 4.52529 1.4841L5.17029 3.0051C5.45079 3.66735 5.29479 4.4466 4.78479 4.9311L3.36354 6.2796C3.45129 7.0866 3.72279 7.88085 4.17729 8.66235C4.60889 9.41845 5.18782 10.0803 5.87979 10.6086L7.58679 10.0386C8.23329 9.82335 8.93829 10.0716 9.33429 10.6544L10.259 12.0119C10.7203 12.6899 10.637 13.6244 10.0648 14.1989L9.45204 14.8146C8.84154 15.4274 7.96929 15.6501 7.16304 15.3981C5.25804 14.8041 3.50829 13.0409 1.91079 10.1084C0.311037 7.17135 -0.253713 4.67835 0.217287 2.63235C0.415287 1.77135 1.02804 1.0851 1.82904 0.829351Z" fill="#43AA3A"/>
</svg>
