<svg width="599" height="531" viewBox="0 0 599 531" fill="none" xmlns="http://www.w3.org/2000/svg">
<path d="M208.727 201L404.5 133" stroke="#6F96F7" stroke-width="4"/>
<path d="M230.727 341L411.5 404" stroke="#6F96F7" stroke-width="4"/>
<g filter="url(#filter0_di_43_1474)">
<circle cx="483.227" cy="105" r="59" fill="white"/>
<circle cx="483.227" cy="105" r="58.5" stroke="#F5F5F5"/>
</g>
<path d="M488.783 86.25V91.25C488.783 91.9375 488.283 92.5 487.672 92.5C487.061 92.5 486.561 91.9375 486.561 91.25V86.25C486.561 85.5625 487.061 85 487.672 85C488.283 85 488.783 85.5625 488.783 86.25ZM481.929 86.8047L484.151 90.5547C484.491 91.1328 484.352 91.9062 483.845 92.2891C483.339 92.6719 482.644 92.5156 482.304 91.9453L480.082 88.1953C479.741 87.6172 479.88 86.8437 480.387 86.4609C480.894 86.0781 481.589 86.2344 481.929 86.8047ZM474.825 94.2969C475.477 93.5625 476.533 93.5625 477.179 94.2969L485.776 103.961C486.477 104.75 487.672 104.187 487.672 103.078V100C487.672 98.6172 488.665 97.5 489.894 97.5C491.123 97.5 492.116 98.6172 492.116 100V112C492.116 116.461 490.033 120.594 486.637 122.891C482.193 125.891 476.512 125.102 472.852 120.984L465.936 113.203C465.283 112.469 465.283 111.281 465.936 110.555C466.589 109.828 467.644 109.82 468.29 110.555L471.97 114.695C472.394 115.172 473.082 115.172 473.505 114.695C473.929 114.219 473.929 113.445 473.505 112.969L467.047 105.703C466.394 104.969 466.394 103.781 467.047 103.055C467.7 102.328 468.755 102.32 469.401 103.055L475.859 110.32C476.283 110.797 476.97 110.797 477.394 110.32C477.818 109.844 477.818 109.07 477.394 108.594L469.269 99.4531C468.616 98.7187 468.616 97.5312 469.269 96.8047C469.922 96.0781 470.977 96.0703 471.623 96.8047L479.748 105.945C480.172 106.422 480.859 106.422 481.283 105.945C481.707 105.469 481.707 104.695 481.283 104.219L474.825 96.9531C474.172 96.2187 474.172 95.0312 474.825 94.3047V94.2969ZM495.526 122.883C493.845 124.016 491.991 124.609 490.13 124.687C493.47 121.594 495.45 116.953 495.45 112V104.336C496.019 104.328 496.561 103.836 496.561 103.086V100C496.561 98.6172 497.554 97.5 498.783 97.5C500.012 97.5 501.005 98.6172 501.005 100V112C501.005 116.461 498.922 120.594 495.526 122.891V122.883ZM494.957 86.4609C495.47 86.8437 495.602 87.6172 495.262 88.1953L493.04 91.9453C492.7 92.5234 492.012 92.6719 491.498 92.2891C490.984 91.9062 490.852 91.1328 491.193 90.5547L493.415 86.8047C493.755 86.2266 494.443 86.0781 494.957 86.4609Z" fill="#6F96F7"/>
<g filter="url(#filter1_di_43_1474)">
<circle cx="131.227" cy="284" r="75" fill="url(#paint0_linear_43_1474)" shape-rendering="crispEdges"/>
<circle cx="131.227" cy="284" r="74.5" stroke="#F5F5F5" shape-rendering="crispEdges"/>
</g>
<path d="M99.7874 278.12V280.68C99.7874 283.8 97.8874 287.22 95.0674 288.52L96.2674 290.18C99.4074 288.68 101.467 284.7 101.467 280.68V278.12H99.7874ZM100.227 278.12V280.68C100.227 284.6 102.287 288.3 105.467 289.72L106.627 288.06C103.767 286.86 101.887 283.7 101.887 280.68V278.12H100.227ZM95.7274 277.2V278.94H105.947V277.2H95.7274ZM108.087 275.38V293.66H110.187V275.38H108.087ZM118.526 284.66V288.7H120.626V284.66H118.526ZM126.586 275.38V289.26H128.686V275.38H126.586ZM115.906 291.6V293.3H129.106V291.6H115.906ZM115.906 287.92V292.06H118.006V287.92H115.906ZM113.726 285.36C117.026 285.36 121.386 285.28 125.306 284.64L125.166 283.12C121.306 283.62 116.806 283.66 113.446 283.66L113.726 285.36ZM122.986 286.1V287.58H127.086V286.1H122.986ZM119.366 276.08C116.686 276.08 114.846 277.36 114.846 279.3C114.846 281.24 116.686 282.5 119.366 282.5C122.026 282.5 123.886 281.24 123.886 279.3C123.886 277.36 122.026 276.08 119.366 276.08ZM119.366 277.62C120.846 277.62 121.886 278.24 121.886 279.3C121.886 280.34 120.846 280.96 119.366 280.96C117.866 280.96 116.826 280.34 116.826 279.3C116.826 278.24 117.866 277.62 119.366 277.62ZM145.524 275.38V293.66H147.524V275.38H145.524ZM142.724 282.58V284.28H146.024V282.58H142.724ZM141.404 275.74V292.76H143.344V275.74H141.404ZM132.524 287.58V289.32H133.764C136.324 289.32 138.204 289.24 140.404 288.8L140.224 287.08C138.084 287.5 136.244 287.58 133.764 287.58H132.524ZM132.524 277.56V288.4H134.604V279.26H139.304V277.56H132.524ZM154.583 276.34V278.1C154.583 280.76 153.043 283.22 150.163 284.24L151.263 285.9C154.503 284.7 156.303 281.68 156.303 278.1V276.34H154.583ZM154.983 276.34V278.28C154.983 281.52 156.783 284.28 159.883 285.38L160.983 283.74C158.243 282.84 156.683 280.64 156.683 278.28V276.34H154.983ZM162.503 275.38V286.34H164.603V275.38H162.503ZM164.023 279.88V281.62H167.183V279.88H164.023ZM158.723 286.8C154.943 286.8 152.623 288.06 152.623 290.22C152.623 292.38 154.943 293.64 158.723 293.64C162.483 293.64 164.803 292.38 164.803 290.22C164.803 288.06 162.483 286.8 158.723 286.8ZM158.723 288.44C161.263 288.44 162.723 289.06 162.723 290.22C162.723 291.38 161.263 292 158.723 292C156.183 292 154.703 291.38 154.703 290.22C154.703 289.06 156.183 288.44 158.723 288.44Z" fill="#292929"/>
<path fill-rule="evenodd" clip-rule="evenodd" d="M21.9407 301.729C12.3507 241.18 53.661 184.321 114.21 174.731C156.126 168.092 196.274 185.847 220.196 217.491C221.817 217.354 223.429 217.293 225.029 217.305C200.468 183.133 157.984 163.748 113.584 170.78C50.8533 180.716 8.05436 239.624 17.9899 302.354C27.9255 365.085 86.8333 407.884 149.564 397.949C193.964 390.916 228.378 359.352 241.177 319.262C239.66 319.769 238.108 320.209 236.523 320.579C223.551 358.067 190.855 387.359 148.938 393.998C88.3895 403.588 31.5307 362.277 21.9407 301.729Z" fill="#6F96F7"/>
<path fill-rule="evenodd" clip-rule="evenodd" d="M215.414 335.325C189.337 380.493 131.581 395.968 86.4139 369.891C55.3492 351.956 38.3295 319.036 39.2136 285.533C38.2036 284.661 37.2388 283.751 36.32 282.806C34.4159 318.277 52.0451 353.512 84.9139 372.489C131.516 399.395 191.106 383.428 218.012 336.825C244.918 290.223 228.951 230.633 182.349 203.727C149.48 184.751 110.151 187.101 80.3849 206.484C81.6627 206.808 82.9333 207.188 84.1931 207.627C112.765 190.11 149.784 188.39 180.849 206.325C226.016 232.403 241.491 290.158 215.414 335.325Z" fill="#6F96F7"/>
<path fill-rule="evenodd" clip-rule="evenodd" d="M517.93 43.5318C555.146 65.0188 567.898 112.608 546.411 149.824C524.924 187.041 477.335 199.792 440.118 178.305C437.634 176.871 435.258 175.32 432.995 173.664C432.252 174.382 431.471 175.05 430.658 175.667C433.176 177.544 435.831 179.294 438.618 180.903C477.27 203.219 526.693 189.976 549.009 151.324C571.324 112.673 558.081 63.2492 519.43 40.9337C480.778 18.6183 431.355 31.8613 409.039 70.5127C397.77 90.0319 395.569 112.298 401.129 132.433C402.008 131.897 402.915 131.415 403.845 130.988C398.715 111.771 400.907 90.5986 411.637 72.0127C433.124 34.7961 480.713 22.0448 517.93 43.5318Z" fill="#6F96F7"/>
<path fill-rule="evenodd" clip-rule="evenodd" d="M555.079 458.881C533.592 496.098 486.003 508.849 448.787 487.362C418.356 469.793 404.282 434.773 411.908 402.241C410.954 401.938 410.005 401.601 409.064 401.227C400.971 435.106 415.58 471.654 447.287 489.96C485.938 512.276 535.362 499.033 557.677 460.381C579.993 421.73 566.75 372.306 528.098 349.991C507.514 338.106 483.874 336.307 462.9 343.061C463.341 343.966 463.75 344.886 464.125 345.819C484.243 339.431 506.877 341.203 526.598 352.589C563.815 374.076 576.566 421.665 555.079 458.881Z" fill="#6F96F7"/>
<g filter="url(#filter2_di_43_1474)">
<circle cx="483.227" cy="421" r="59" fill="white"/>
<circle cx="483.227" cy="421" r="58.5" stroke="#F5F5F5"/>
</g>
<path d="M483.227 421C481.394 421 479.825 420.347 478.519 419.042C477.213 417.736 476.561 416.167 476.561 414.333C476.561 412.5 477.213 410.931 478.519 409.625C479.825 408.319 481.394 407.667 483.227 407.667C485.061 407.667 486.63 408.319 487.936 409.625C489.241 410.931 489.894 412.5 489.894 414.333C489.894 416.167 489.241 417.736 487.936 419.042C486.63 420.347 485.061 421 483.227 421ZM473.227 434.333C472.311 434.333 471.526 434.007 470.874 433.355C470.221 432.702 469.894 431.917 469.894 431V429.667C469.894 428.722 470.137 427.854 470.624 427.062C471.11 426.271 471.755 425.667 472.561 425.25C474.283 424.389 476.033 423.743 477.811 423.312C479.588 422.882 481.394 422.667 483.227 422.667C485.061 422.667 486.866 422.882 488.644 423.312C490.422 423.743 492.172 424.389 493.894 425.25C494.7 425.667 495.345 426.271 495.831 427.062C496.317 427.854 496.561 428.722 496.561 429.667V431C496.561 431.917 496.235 432.702 495.582 433.355C494.929 434.007 494.144 434.333 493.227 434.333H473.227Z" fill="#6F96F7"/>
<defs>
<filter id="filter0_di_43_1474" x="401.227" y="32" width="160" height="160" filterUnits="userSpaceOnUse" color-interpolation-filters="sRGB">
<feFlood flood-opacity="0" result="BackgroundImageFix"/>
<feColorMatrix in="SourceAlpha" type="matrix" values="0 0 0 0 0 0 0 0 0 0 0 0 0 0 0 0 0 0 127 0" result="hardAlpha"/>
<feOffset dx="-2" dy="7"/>
<feGaussianBlur stdDeviation="10.5"/>
<feComposite in2="hardAlpha" operator="out"/>
<feColorMatrix type="matrix" values="0 0 0 0 0 0 0 0 0 0 0 0 0 0 0 0 0 0 0.15 0"/>
<feBlend mode="normal" in2="BackgroundImageFix" result="effect1_dropShadow_43_1474"/>
<feBlend mode="normal" in="SourceGraphic" in2="effect1_dropShadow_43_1474" result="shape"/>
<feColorMatrix in="SourceAlpha" type="matrix" values="0 0 0 0 0 0 0 0 0 0 0 0 0 0 0 0 0 0 127 0" result="hardAlpha"/>
<feOffset dx="1"/>
<feGaussianBlur stdDeviation="0.5"/>
<feComposite in2="hardAlpha" operator="arithmetic" k2="-1" k3="1"/>
<feColorMatrix type="matrix" values="0 0 0 0 0 0 0 0 0 0 0 0 0 0 0 0 0 0 0.2 0"/>
<feBlend mode="normal" in2="shape" result="effect2_innerShadow_43_1474"/>
</filter>
<filter id="filter1_di_43_1474" x="33.2274" y="195" width="192" height="192" filterUnits="userSpaceOnUse" color-interpolation-filters="sRGB">
<feFlood flood-opacity="0" result="BackgroundImageFix"/>
<feColorMatrix in="SourceAlpha" type="matrix" values="0 0 0 0 0 0 0 0 0 0 0 0 0 0 0 0 0 0 127 0" result="hardAlpha"/>
<feOffset dx="-2" dy="7"/>
<feGaussianBlur stdDeviation="10.5"/>
<feComposite in2="hardAlpha" operator="out"/>
<feColorMatrix type="matrix" values="0 0 0 0 0 0 0 0 0 0 0 0 0 0 0 0 0 0 0.15 0"/>
<feBlend mode="normal" in2="BackgroundImageFix" result="effect1_dropShadow_43_1474"/>
<feBlend mode="normal" in="SourceGraphic" in2="effect1_dropShadow_43_1474" result="shape"/>
<feColorMatrix in="SourceAlpha" type="matrix" values="0 0 0 0 0 0 0 0 0 0 0 0 0 0 0 0 0 0 127 0" result="hardAlpha"/>
<feOffset dx="1"/>
<feGaussianBlur stdDeviation="0.5"/>
<feComposite in2="hardAlpha" operator="arithmetic" k2="-1" k3="1"/>
<feColorMatrix type="matrix" values="0 0 0 0 0 0 0 0 0 0 0 0 0 0 0 0 0 0 0.2 0"/>
<feBlend mode="normal" in2="shape" result="effect2_innerShadow_43_1474"/>
</filter>
<filter id="filter2_di_43_1474" x="401.227" y="348" width="160" height="160" filterUnits="userSpaceOnUse" color-interpolation-filters="sRGB">
<feFlood flood-opacity="0" result="BackgroundImageFix"/>
<feColorMatrix in="SourceAlpha" type="matrix" values="0 0 0 0 0 0 0 0 0 0 0 0 0 0 0 0 0 0 127 0" result="hardAlpha"/>
<feOffset dx="-2" dy="7"/>
<feGaussianBlur stdDeviation="10.5"/>
<feComposite in2="hardAlpha" operator="out"/>
<feColorMatrix type="matrix" values="0 0 0 0 0 0 0 0 0 0 0 0 0 0 0 0 0 0 0.15 0"/>
<feBlend mode="normal" in2="BackgroundImageFix" result="effect1_dropShadow_43_1474"/>
<feBlend mode="normal" in="SourceGraphic" in2="effect1_dropShadow_43_1474" result="shape"/>
<feColorMatrix in="SourceAlpha" type="matrix" values="0 0 0 0 0 0 0 0 0 0 0 0 0 0 0 0 0 0 127 0" result="hardAlpha"/>
<feOffset dx="1"/>
<feGaussianBlur stdDeviation="0.5"/>
<feComposite in2="hardAlpha" operator="arithmetic" k2="-1" k3="1"/>
<feColorMatrix type="matrix" values="0 0 0 0 0 0 0 0 0 0 0 0 0 0 0 0 0 0 0.2 0"/>
<feBlend mode="normal" in2="shape" result="effect2_innerShadow_43_1474"/>
</filter>
<linearGradient id="paint0_linear_43_1474" x1="155.727" y1="244" x2="35.7274" y2="388" gradientUnits="userSpaceOnUse">
<stop stop-color="white"/>
<stop offset="1" stop-color="white" stop-opacity="0"/>
</linearGradient>
</defs>
</svg>
