<svg width="20" height="24" viewBox="0 0 20 24" fill="none" xmlns="http://www.w3.org/2000/svg">
<path d="M19.3333 20.855V7.33337L12.3333 0.333374H2.99996C1.71663 0.333374 0.678293 1.38337 0.678293 2.66671L0.666626 21.3334C0.666626 22.6167 1.70496 23.6667 2.98829 23.6667H17C17.525 23.6667 17.9916 23.4917 18.3883 23.2L13.22 18.0317C12.2866 18.6384 11.19 19 9.99996 19C6.77996 19 4.16663 16.3867 4.16663 13.1667C4.16663 9.94671 6.77996 7.33337 9.99996 7.33337C13.22 7.33337 15.8333 9.94671 15.8333 13.1667C15.8333 14.3567 15.4716 15.4534 14.865 16.375L19.3333 20.855ZM6.49996 13.1667C6.49996 15.1034 8.06329 16.6667 9.99996 16.6667C11.9366 16.6667 13.5 15.1034 13.5 13.1667C13.5 11.23 11.9366 9.66671 9.99996 9.66671C8.06329 9.66671 6.49996 11.23 6.49996 13.1667Z" fill="white" fill-opacity="0.6"/>
</svg>
