<svg width="20" height="24" viewBox="0 0 20 24" fill="none" xmlns="http://www.w3.org/2000/svg">
<path d="M19.3333 20.855V7.33337L12.3333 0.333374H3C1.71666 0.333374 0.678331 1.38337 0.678331 2.66671L0.666664 21.3334C0.666664 22.6167 1.705 23.6667 2.98833 23.6667H17C17.525 23.6667 17.9917 23.4917 18.3883 23.2L13.22 18.0317C12.2867 18.6384 11.19 19 10 19C6.78 19 4.16666 16.3867 4.16666 13.1667C4.16666 9.94671 6.78 7.33337 10 7.33337C13.22 7.33337 15.8333 9.94671 15.8333 13.1667C15.8333 14.3567 15.4717 15.4534 14.865 16.375L19.3333 20.855ZM6.5 13.1667C6.5 15.1034 8.06333 16.6667 10 16.6667C11.9367 16.6667 13.5 15.1034 13.5 13.1667C13.5 11.23 11.9367 9.66671 10 9.66671C8.06333 9.66671 6.5 11.23 6.5 13.1667Z" fill="white"/>
</svg>
