<svg width="26" height="18" viewBox="0 0 26 18" fill="none" xmlns="http://www.w3.org/2000/svg">
<path d="M17.6666 7.83337C19.6033 7.83337 21.155 6.27004 21.155 4.33337C21.155 2.39671 19.6033 0.833374 17.6666 0.833374C15.73 0.833374 14.1666 2.39671 14.1666 4.33337C14.1666 6.27004 15.73 7.83337 17.6666 7.83337ZM8.33329 7.83337C10.27 7.83337 11.8216 6.27004 11.8216 4.33337C11.8216 2.39671 10.27 0.833374 8.33329 0.833374C6.39663 0.833374 4.83329 2.39671 4.83329 4.33337C4.83329 6.27004 6.39663 7.83337 8.33329 7.83337ZM8.33329 10.1667C5.61496 10.1667 0.166626 11.5317 0.166626 14.25V17.1667H16.5V14.25C16.5 11.5317 11.0516 10.1667 8.33329 10.1667ZM17.6666 10.1667C17.3283 10.1667 16.9433 10.19 16.535 10.225C17.8883 11.205 18.8333 12.5234 18.8333 14.25V17.1667H25.8333V14.25C25.8333 11.5317 20.385 10.1667 17.6666 10.1667Z" fill="white" fill-opacity="0.6"/>
</svg>
