<svg width="26" height="18" viewBox="0 0 26 18" fill="none" xmlns="http://www.w3.org/2000/svg">
<path d="M17.6667 7.83337C19.6033 7.83337 21.155 6.27004 21.155 4.33337C21.155 2.39671 19.6033 0.833374 17.6667 0.833374C15.73 0.833374 14.1667 2.39671 14.1667 4.33337C14.1667 6.27004 15.73 7.83337 17.6667 7.83337ZM8.33333 7.83337C10.27 7.83337 11.8217 6.27004 11.8217 4.33337C11.8217 2.39671 10.27 0.833374 8.33333 0.833374C6.39667 0.833374 4.83333 2.39671 4.83333 4.33337C4.83333 6.27004 6.39667 7.83337 8.33333 7.83337ZM8.33333 10.1667C5.615 10.1667 0.166664 11.5317 0.166664 14.25V17.1667H16.5V14.25C16.5 11.5317 11.0517 10.1667 8.33333 10.1667ZM17.6667 10.1667C17.3283 10.1667 16.9433 10.19 16.535 10.225C17.8883 11.205 18.8333 12.5234 18.8333 14.25V17.1667H25.8333V14.25C25.8333 11.5317 20.385 10.1667 17.6667 10.1667Z" fill="white"/>
</svg>
