<svg width="20" height="23" viewBox="0 0 20 23" fill="none" xmlns="http://www.w3.org/2000/svg">
<path d="M1.00846 9.49153L9.17513 1.32486C9.39391 1.10614 9.6906 0.983276 9.99996 0.983276C10.3093 0.983276 10.606 1.10614 10.8248 1.32486L18.9915 9.49153C19.2103 9.71027 19.3332 10.007 19.3333 10.3164V21.5C19.3333 21.8094 19.2104 22.1062 18.9916 22.325C18.7728 22.5438 18.476 22.6667 18.1666 22.6667H12.3333V14.5H7.66663V22.6667H1.83329C1.52387 22.6667 1.22713 22.5438 1.00833 22.325C0.789543 22.1062 0.666626 21.8094 0.666626 21.5V10.3164C0.666692 10.007 0.789652 9.71027 1.00846 9.49153Z" fill="white" fill-opacity="0.6"/>
</svg>
