<svg width="20" height="23" viewBox="0 0 20 23" fill="none" xmlns="http://www.w3.org/2000/svg">
<path d="M1.0085 9.49153L9.17516 1.32486C9.39395 1.10614 9.69064 0.983276 10 0.983276C10.3094 0.983276 10.606 1.10614 10.8248 1.32486L18.9915 9.49153C19.2103 9.71027 19.3333 10.007 19.3333 10.3164V21.5C19.3333 21.8094 19.2104 22.1062 18.9916 22.325C18.7728 22.5438 18.4761 22.6667 18.1667 22.6667H12.3333V14.5H7.66666V22.6667H1.83333C1.52391 22.6667 1.22717 22.5438 1.00837 22.325C0.789581 22.1062 0.666664 21.8094 0.666664 21.5V10.3164C0.66673 10.007 0.78969 9.71027 1.0085 9.49153Z" fill="white"/>
</svg>
