<svg width="334" height="334" viewBox="0 0 334 334" fill="none" xmlns="http://www.w3.org/2000/svg">
<circle cx="167" cy="167" r="165" stroke="#CCDBFF" stroke-width="4"/>
<circle cx="167" cy="167" r="134" stroke="#B8CCFF" stroke-width="4"/>
<circle cx="167" cy="167" r="99" fill="url(#paint0_linear_78_1477)"/>
<path d="M122.784 159.568V163.152C122.784 167.52 120.124 172.308 116.176 174.128L117.856 176.452C122.252 174.352 125.136 168.78 125.136 163.152V159.568H122.784ZM123.4 159.568V163.152C123.4 168.64 126.284 173.82 130.736 175.808L132.36 173.484C128.356 171.804 125.724 167.38 125.724 163.152V159.568H123.4ZM117.1 158.28V160.716H131.408V158.28H117.1ZM134.404 155.732V181.324H137.344V155.732H134.404ZM149.018 168.724V174.38H151.958V168.724H149.018ZM160.302 155.732V175.164H163.242V155.732H160.302ZM145.35 178.44V180.82H163.83V178.44H145.35ZM145.35 173.288V179.084H148.29V173.288H145.35ZM142.298 169.704C146.918 169.704 153.022 169.592 158.51 168.696L158.314 166.568C152.91 167.268 146.61 167.324 141.906 167.324L142.298 169.704ZM155.262 170.74V172.812H161.002V170.74H155.262ZM150.194 156.712C146.442 156.712 143.866 158.504 143.866 161.22C143.866 163.936 146.442 165.7 150.194 165.7C153.918 165.7 156.522 163.936 156.522 161.22C156.522 158.504 153.918 156.712 150.194 156.712ZM150.194 158.868C152.266 158.868 153.722 159.736 153.722 161.22C153.722 162.676 152.266 163.544 150.194 163.544C148.094 163.544 146.638 162.676 146.638 161.22C146.638 159.736 148.094 158.868 150.194 158.868ZM186.816 155.732V181.324H189.616V155.732H186.816ZM182.896 165.812V168.192H187.516V165.812H182.896ZM181.048 156.236V180.064H183.764V156.236H181.048ZM168.616 172.812V175.248H170.352C173.936 175.248 176.568 175.136 179.648 174.52L179.396 172.112C176.4 172.7 173.824 172.812 170.352 172.812H168.616ZM168.616 158.784V173.96H171.528V161.164H178.108V158.784H168.616ZM199.497 157.076V159.54C199.497 163.264 197.341 166.708 193.309 168.136L194.849 170.46C199.385 168.78 201.905 164.552 201.905 159.54V157.076H199.497ZM200.057 157.076V159.792C200.057 164.328 202.577 168.192 206.917 169.732L208.457 167.436C204.621 166.176 202.437 163.096 202.437 159.792V157.076H200.057ZM210.585 155.732V171.076H213.525V155.732H210.585ZM212.713 162.032V164.468H217.137V162.032H212.713ZM205.293 171.72C200.001 171.72 196.753 173.484 196.753 176.508C196.753 179.532 200.001 181.296 205.293 181.296C210.557 181.296 213.805 179.532 213.805 176.508C213.805 173.484 210.557 171.72 205.293 171.72ZM205.293 174.016C208.849 174.016 210.893 174.884 210.893 176.508C210.893 178.132 208.849 179 205.293 179C201.737 179 199.665 178.132 199.665 176.508C199.665 174.884 201.737 174.016 205.293 174.016Z" fill="white"/>
<circle cx="248" cy="22" r="9" fill="#7DA1F7"/>
<circle cx="115" cy="325" r="9" fill="#A0B9F9"/>
<defs>
<linearGradient id="paint0_linear_78_1477" x1="95.6122" y1="240.408" x2="803.765" y2="-26.9592" gradientUnits="userSpaceOnUse">
<stop stop-color="#6F96F7"/>
<stop offset="1" stop-color="white" stop-opacity="0"/>
</linearGradient>
</defs>
</svg>
