<svg width="22" height="24" viewBox="0 0 22 24" fill="none" xmlns="http://www.w3.org/2000/svg">
<path d="M19.33 13.0967C19.3767 12.7467 19.4 12.385 19.4 12C19.4 11.6267 19.3767 11.2534 19.3183 10.9034L21.6867 9.06005C21.8967 8.89672 21.955 8.58172 21.8267 8.34838L19.5867 4.47505C19.4467 4.21838 19.155 4.13672 18.8983 4.21838L16.11 5.33838C15.5267 4.89505 14.9083 4.52172 14.22 4.24172L13.8 1.27838C13.7533 0.998382 13.52 0.800049 13.24 0.800049H8.76C8.48 0.800049 8.25833 0.998382 8.21167 1.27838L7.79167 4.24172C7.10333 4.52172 6.47333 4.90672 5.90167 5.33838L3.11333 4.21838C2.85667 4.12505 2.565 4.21838 2.425 4.47505L0.196668 8.34838C0.0566675 8.59338 0.103334 8.89672 0.336667 9.06005L2.705 10.9034C2.64667 11.2534 2.6 11.6384 2.6 12C2.6 12.3617 2.62333 12.7467 2.68167 13.0967L0.313334 14.9401C0.103334 15.1034 0.0450009 15.4184 0.173334 15.6517L2.41333 19.5251C2.55333 19.7817 2.845 19.8634 3.10167 19.7817L5.89 18.6617C6.47333 19.105 7.09167 19.4784 7.78 19.7584L8.2 22.7217C8.25833 23.0017 8.48 23.2001 8.76 23.2001H13.24C13.52 23.2001 13.7533 23.0017 13.7883 22.7217L14.2083 19.7584C14.8967 19.4784 15.5267 19.105 16.0983 18.6617L18.8867 19.7817C19.1433 19.8751 19.435 19.7817 19.575 19.5251L21.815 15.6517C21.955 15.395 21.8967 15.1034 21.675 14.9401L19.33 13.0967ZM11 16.2001C8.69 16.2001 6.8 14.3101 6.8 12C6.8 9.69005 8.69 7.80005 11 7.80005C13.31 7.80005 15.2 9.69005 15.2 12C15.2 14.3101 13.31 16.2001 11 16.2001Z" fill="white"/>
</svg>
