<svg width="8" height="10" viewBox="0 0 8 10" fill="none" xmlns="http://www.w3.org/2000/svg">
<path d="M0 9.633H3.432C5.551 9.633 7.163 8.736 7.163 6.799C7.163 5.499 6.396 4.771 5.356 4.524V4.459C6.175 4.173 6.669 3.263 6.669 2.379C6.669 0.585001 5.161 0 3.185 0H0V9.633ZM1.924 3.926V1.482H3.068C4.225 1.482 4.797 1.82 4.797 2.665C4.797 3.432 4.264 3.926 3.042 3.926H1.924ZM1.924 8.151V5.343H3.263C4.589 5.343 5.291 5.746 5.291 6.682C5.291 7.683 4.576 8.151 3.263 8.151H1.924Z" fill="#757575"/>
</svg>
